<svg xmlns="http://www.w3.org/2000/svg" width="980" height="140" viewBox="0 0 980 140">
  <style>
    .t1 { font: 700 16px ui-sans-serif, system-ui, -apple-system, Segoe UI, Roboto, Arial; fill: #000; }
    .t2 { font: 500 12px ui-sans-serif, system-ui, -apple-system, Segoe UI, Roboto, Arial; fill: #000; opacity: .72; }
  </style>

  <rect x="0" y="0" width="980" height="140" fill="none"/>

  <!-- spacing-only layout (no borders/cards) -->
  <g transform="translate(10,16)">
    <!-- helper: each column is 190px wide, center at x=95 -->

    <g transform="translate(0,0)">
      <g transform="translate(78 0) scale(1.4166667)">
        <path fill="#000000" d="M11.944 0A12 12 0 0 0 0 12a12 12 0 0 0 12 12 12 12 0 0 0 12-12A12 12 0 0 0 12 0a12 12 0 0 0-.056 0zm4.962 7.224c.1-.002.321.023.465.14a.506.506 0 0 1 .171.325c.016.093.036.306.02.472-.18 1.898-.962 6.502-1.36 8.627-.168.9-.499 1.201-.82 1.23-.696.065-1.225-.46-1.9-.902-1.056-.693-1.653-1.124-2.678-1.8-1.185-.78-.417-1.21.258-1.91.177-.184 3.247-2.977 3.307-3.23.007-.032.014-.15-.056-.212s-.174-.041-.249-.024c-.106.024-1.793 1.14-5.061 3.345-.48.33-.913.49-1.302.48-.428-.008-1.252-.241-1.865-.44-.752-.245-1.349-.374-1.297-.789.027-.216.325-.437.893-.663 3.498-1.524 5.83-2.529 6.998-3.014 3.332-1.386 4.025-1.627 4.476-1.635z"/>
      </g>
      <text class="t1" x="95" y="64" text-anchor="middle">Telegram</text>
      <text class="t2" x="95" y="86" text-anchor="middle">Mini Apps · Bots</text>
    </g>

    <g transform="translate(190,0)">
      <g transform="translate(78 0) scale(1.4166667)">
        <path fill="#000000" d="M14.25.18l.9.2.73.26.59.3.45.32.34.34.25.34.16.33.1.3.04.26.02.2-.01.13V8.5l-.05.63-.13.55-.21.46-.26.38-.3.31-.33.25-.35.19-.35.14-.33.1-.3.07-.26.04-.21.02H8.77l-.69.05-.59.14-.5.22-.41.27-.33.32-.27.35-.2.36-.15.37-.1.35-.07.32-.04.27-.02.21v3.06H3.17l-.21-.03-.28-.07-.32-.12-.35-.18-.36-.26-.36-.36-.35-.46-.32-.59-.28-.73-.21-.88-.14-1.05-.05-1.23.06-1.22.16-1.04.24-.87.32-.71.36-.57.4-.44.42-.33.42-.24.4-.16.36-.1.32-.05.24-.01h.16l.06.01h8.16v-.83H6.18l-.01-2.75-.02-.37.05-.34.11-.31.17-.28.25-.26.31-.23.38-.2.44-.18.51-.15.58-.12.64-.1.71-.06.77-.04.84-.02 1.27.05zm-6.3 1.98l-.23.33-.08.41.08.41.23.34.33.22.41.09.41-.09.33-.22.23-.34.08-.41-.08-.41-.23-.33-.33-.22-.41-.09-.41.09zm13.09 3.95l.28.06.32.12.35.18.36.27.36.35.35.47.32.59.28.73.21.88.14 1.04.05 1.23-.06 1.23-.16 1.04-.24.86-.32.71-.36.57-.4.45-.42.33-.42.24-.4.16-.36.09-.32.05-.24.02-.16-.01h-8.22v.82h5.84l.01 2.76.02.36-.05.34-.11.31-.17.29-.25.25-.31.24-.38.2-.44.17-.51.15-.58.13-.64.09-.71.07-.77.04-.84.01-1.27-.04-1.07-.14-.9-.2-.73-.25-.59-.3-.45-.33-.34-.34-.25-.34-.16-.33-.1-.3-.04-.25-.02-.2.01-.13v-5.34l.05-.64.13-.54.21-.46.26-.38.3-.32.33-.24.35-.2.35-.14.33-.1.3-.06.26-.04.21-.02.13-.01h5.84l.69-.05.59-.14.5-.21.41-.28.33-.32.27-.35.2-.36.15-.36.1-.35.07-.32.04-.28.02-.21V6.07h2.09l.14.01zm-6.47 14.25l-.23.33-.08.41.08.41.23.33.33.23.41.08.41-.08.33-.23.23-.33.08-.41-.08-.41-.23-.33-.33-.23-.41-.08-.41.08z"/>
      </g>
      <text class="t1" x="95" y="64" text-anchor="middle">Backend</text>
      <text class="t2" x="95" y="86" text-anchor="middle">APIs · Services · Jobs</text>
    </g>

    <g transform="translate(380,0)">
      <g transform="translate(78 0) scale(1.4166667)">
        <path fill="#000000" d="M23.174 3.468l-7.416 8.322a.228.228 0 0 1-.33 0l-3.786-3.9a.228.228 0 0 1 0-.282L12.872 6a.228.228 0 0 1 .366 0l2.106 2.346a.228.228 0 0 0 .342 0l5.94-8.094A.162.162 0 0 0 21.5 0H.716a.174.174 0 0 0-.174.174v23.652A.174.174 0 0 0 .716 24h22.566a.174.174 0 0 0 .174-.174V3.6a.162.162 0 0 0-.282-.132zM6.932 21.366a5.706 5.706 0 0 1-4.05-1.44.222.222 0 0 1 0-.288l.882-1.236a.222.222 0 0 1 .33-.036 4.338 4.338 0 0 0 2.964 1.158c1.158 0 1.722-.534 1.722-1.098 0-1.752-5.7-.552-5.7-4.278 0-1.65 1.428-3 3.756-3a5.568 5.568 0 0 1 3.708 1.242.222.222 0 0 1 0 .3l-.906 1.2a.222.222 0 0 1-.318.036 4.29 4.29 0 0 0-2.706-.936c-.906 0-1.41.402-1.41.996 0 1.572 5.688.522 5.688 4.2.006 1.812-1.284 3.18-3.96 3.18zm12.438-3.432a.192.192 0 0 1-.192.192h-5.202a.06.06 0 0 0-.06.066 1.986 1.986 0 0 0 2.106 1.638 3.264 3.264 0 0 0 1.8-.6.192.192 0 0 1 .276.042l.636.93a.198.198 0 0 1-.042.264 4.71 4.71 0 0 1-2.892.9 3.726 3.726 0 0 1-3.93-3.87 3.744 3.744 0 0 1 3.81-3.852c2.196 0 3.684 1.644 3.684 4.05zm-3.684-2.748a1.758 1.758 0 0 0-1.8 1.56.06.06 0 0 0 .06.066h3.492a.06.06 0 0 0 .06-.066 1.698 1.698 0 0 0-1.812-1.56Z"/>
      </g>
      <text class="t1" x="95" y="64" text-anchor="middle">Automation</text>
      <text class="t2" x="95" y="86" text-anchor="middle">Parsing · Flows</text>
    </g>

    <g transform="translate(570,0)">
      <g transform="translate(78 0) scale(1.4166667)">
        <path fill="#000000" d="M12 0C5.373 0 0 5.373 0 12s5.373 12 12 12 12-5.373 12-12S18.627 0 12 0zM7.902 6.697h8.196c1.505 0 2.462 1.628 1.705 2.94l-5.059 8.765a.86.86 0 0 1-1.488 0L6.199 9.637c-.758-1.314.197-2.94 1.703-2.94zm4.844 1.496v7.58l1.102-2.128 2.656-4.756a.465.465 0 0 0-.408-.696h-3.35zM7.9 8.195a.464.464 0 0 0-.408.694l2.658 4.754 1.102 2.13V8.195H7.9z"/>
      </g>
      <text class="t1" x="95" y="64" text-anchor="middle">TON</text>
      <text class="t2" x="95" y="86" text-anchor="middle">Crypto · Integrations</text>
    </g>

    <g transform="translate(760,0)">
      <g transform="translate(78 0) scale(1.4166667)">
        <path fill="#000000" d="M18.665 21.978C16.758 23.255 14.465 24 12 24 5.377 24 0 18.623 0 12S5.377 0 12 0s12 5.377 12 12c0 3.583-1.574 6.801-4.067 9.001L9.219 7.2H7.2v9.596h1.615V9.251l9.85 12.727Zm-3.332-8.533 1.6 2.061V7.2h-1.6v6.245Z"/>
      </g>
      <text class="t1" x="95" y="64" text-anchor="middle">Web Apps</text>
      <text class="t2" x="95" y="86" text-anchor="middle">Sites · Interfaces · UI</text>
    </g>
  </g>
</svg>
